<svg xmlns="http://www.w3.org/2000/svg" viewBox="0 0 32 32">
	<style>
		@media (prefers-color-scheme: dark) {
			path {
				fill: #FFF;
			}
		}
	</style>
	<path d="M2 19c-.5 0-1-.5-1-1s.5-1 1-1 1 .5 1 1-.5 1-1 1zm15.2-7.7h.7V9.7h-.7v1.6zM21 15c.6 0 1-.3 1-1V7c0-.7-.4-1-1-1-1.2 0-2.7 1.6-3 3.2l.7-.2h-7.4v1h7.5c.4-1.7 1.3-3 2.1-3 0 0 .1.1.1.2v6.5c0 .1-.1.2-.2.2-.8 0-1.6-1.3-2.1-3h-7.5v1H18v-.1c.3 1.6 1.8 3.2 3 3.2zm-5.8-3.7h.7V9.7h-.7v1.6zm-2 0h.7V9.7h-.7v1.6zm1.5 14.5h5.5c5.2 0 7.5-2.7 7.6-7.4 0-3.1-.1-4.7-.5-7.7h-.2v8C27 22.6 24.8 25 20 25h-5.3c-2.3 0-3.8-.8-4.7-2.1l-.2.1c.8 1.7 2.4 2.8 4.9 2.8zM2 3c-.5 0-1-.5-1-1s.5-1 1-1 1 .5 1 1-.5 1-1 1zm0 4.6h1v-2c0-1.1 2-1.1 2-3.2C5 1 4 0 2.5 0S0 1 0 2.4c0 2.1 2 2.1 2 3.2v2zm16 21.2c8.7 0 11.9-2.6 11.9-7.7 0-1.4-.1-2.9-.5-4.8h-.2v4.8c0 4.6-2.9 7-11.2 7-7.5 0-10.1-1.9-10.1-5.3 0-1.4.3-2.8 1.1-4.3l-.2-.1c-.9 1.5-1.6 3.1-1.6 5.1 0 3.2 2.8 5.3 10.8 5.3zm0 2.2c-8.6 0-12-3.1-12-7.8 0-3.4 3-5.6 3-9 0-.9-.3-1.1-.8-1.2 0 0-.2-.1-.2-.4V8.5c0-.3.1-.5.4-.5h2.2c.2 0 .4.2.4.5v4.3c0 .2 0 .2-.4.2-.4.1-.6.5-.6 1v4.9c0 2.5 1.2 4.1 4.3 4.1H22c2.8 0 4-1.7 4-4.2V8.3c0-.2.1-.3.3-.3 1.3 0 4.7 6.8 4.7 13.2 0 6.3-3.7 9.8-13 9.8zM1.2 14h2.7c.7 0 1.1-.4 1.1-1.2v-.6c0-.1.1-.2.3-.2h2v-1H4.8c-.5 0-.8.3-.8.8v.9c0 .2-.1.3-.3.3H1.3c-.2 0-.3-.1-.3-.3V8.3c0-.2.1-.3.3-.3h2.3c.3 0 .4.1.4.3v.9c0 .5.3.8.8.8h2.5V9h-2c-.2 0-.3-.1-.3-.3v-.5C5 7.4 4.6 7 3.8 7H1.2C.4 7 0 7.4 0 8.2v4.7c0 .7.4 1.1 1.2 1.1zm1.3 7C4 21 5 20 5 18.6c0-2.1-2-2.1-2-3.2v-2H2v2c0 1.1-2 1.1-2 3.2C0 20 1 21 2.5 21zM18 32c9.9 0 14-4 14-10.8C32 14.1 28.8 7 26.3 7c-.8 0-1.3.5-1.3 1.4v10.4c0 2-.8 3.2-3 3.2h-7.6c-2.4 0-3.3-1.2-3.3-3.2V14c0-.3-.5.1-.2.1.8-.1 1.2-.6 1.2-1.3V8.5C12 7.6 11.4 7 10.5 7H8.4C7.6 7 7 7.6 7 8.5V13c0 .6.3 1 .8 1 .4 0 .4 0 .4.3 0 3-3.3 4.3-3.3 8.9C5 28.4 8.7 32 18 32z"/></svg>