<svg xmlns="http://www.w3.org/2000/svg" xml:space="preserve" viewBox="0 0 32 32"><style>@media (prefers-color-scheme: dark) {path {fill: #FFF;}}</style><path d="M11.1 14.1c-.5.2-.8.2-1.3 0V14c.5-.2.8-.2 1.3 0v.1zm6.4-2.9c-.2-.5-.2-.8 0-1.3h.2c.2.5.2.8 0 1.3h-.2zm-12.6 0c-.2-.5-.2-.8 0-1.3h.2c.2.5.2.8 0 1.3h-.2zm2.7 0c-.2-.5-.2-.8 0-1.3h.2c.2.5.2.8 0 1.3h-.2zm5 0c-.2-.5-.2-.8 0-1.3h.2c.2.5.2.8 0 1.3h-.2zm2.9 14.6c-2.6 0-4.2-1.2-4.8-2.7l.2-.1c.8 1.3 2.3 2.1 4.7 2.1H20c4.8 0 7-2.4 7.1-6.3v-8h.2c.4 3 .5 4.6.5 7.7 0 4.7-2.4 7.4-7.6 7.4h-4.7zm2.8 3c-7.7 0-10.4-2.2-10.4-5.3 0-2 .7-3.6 1.6-5.1l.2.1c-.7 1.6-1.1 3-1.1 4.3 0 3.3 2.5 5.3 9.7 5.3 8 0 10.8-2.3 10.8-7v-4.8h.2c.4 1.8.5 3.4.5 4.8 0 5.1-3 7.7-11.5 7.7zm0 3.2C28 32 32 28 32 21.2 32 14.1 28.8 7 26.3 7c-.8 0-1.3.5-1.3 1.4v10.4c0 2-.8 3.2-3 3.2h-6.8c-2.4 0-3.3-1.2-3.3-3.2V14c.7-.2 1-.6 1-1.2V12h4.8c.4 1.5 1.8 3 3 3 .6 0 1-.3 1-1V7c0-.7-.4-1-1-1-1.2 0-2.6 1.5-3 3h-4.8v-.5c0-.9-.6-1.5-1.5-1.5H9.2c-.8 0-1.4.6-1.4 1.5V9H5.3c-.2 0-.3-.1-.3-.3v-.5C5 7.4 4.6 7 3.8 7H3V5.6c0-1.1 2-1.1 2-3.2C5 1 4 0 2.5 0S0 1 0 2.4c0 2.1 2 2.1 2 3.2V7h-.8C.4 7 0 7.4 0 8.2v4.7c0 .7.4 1.1 1.2 1.1H2v1.4c0 1.1-2 1.1-2 3.2C0 20 1 21 2.5 21S5 20 5 18.6c0-2.1-2-2.1-2-3.2V14h.8c.8 0 1.2-.4 1.2-1.2v-.6c0-.1.1-.2.3-.2h2.5v1c0 .6.3 1 .8 1 .4 0 .4 0 .4.3 0 3-3.3 4.3-3.3 8.9.1 5.2 3.7 8.8 12.6 8.8z"/></svg>