<svg xmlns="http://www.w3.org/2000/svg" width='51.08' height='49.71' viewBox="0 0 51.08 49.71"><path class='fill' fill="#00b47c" d="M9.47 25.05c.23-.42.56-.64.92-.93.38-.31 1.14-.76 1.28-1.21.19-.61-.29-1.09-.82-1.26-.23-.65-.29-1.02-.81-1.42-.38-.29-.77-.65-.97-1.09-.2-.45-.04-1.3-.03-1.79 0-1.34.01-2.67-.03-4.01-.21-.91-.12-1.78.24-2.62a4.06 4.06 0 0 1 2.62-.24c1 .03 2 0 3-.08 1.01-.05 1.48.42 1.43 1.43.23 1.69-.89 4.04.25 5.55.71.24 1 .69.87 1.36-.52.49-1.06.96-1.62 1.41-.68.38-1.04.96-1.1 1.75v3.02c.09.78.48 1.34 1.18 1.67.44.78.56 1.62.36 2.51-.08 2.14-.45 4.2 1.72 5.45.74.2 1.47.42 2.19.68.38.66.95 1.05 1.71 1.15.98-.03 1.96-.06 2.94-.08h2.86c1.91 0 3.82-.04 5.73.03 2.3.09 4.52-.44 5.48-2.9.1-.87.3-1.72.6-2.54.67-.35 1.06-.91 1.16-1.68-.03-.98-.06-1.96-.08-2.94v-8.59c0-2.29-.39-4.83.28-7.02.25.01.51.02.76.04.5.53.98 1.08 1.43 1.65.87.97 1.79.98 3.01 1.28.39.86.45 1.75.2 2.67.05.81.44 1.37 1.16 1.71.47.79.57 1.64.32 2.55-.03.5-.05 1.01-.08 1.51.1.78.5 1.33 1.19 1.67.47.79.57 1.64.32 2.55l-.08 1.51c.1.78.5 1.33 1.19 1.67.44.79.56 1.64.39 2.55v1.51c-.09.78-.48 1.34-1.18 1.67-.46.79-.57 1.64-.32 2.55.08 1.59.13 2.19-1.04 3.25-1.24 1.12-2.28 2.47-3.53 3.56-.82.58-1.69 1.06-2.62 1.43l-1.08.75c-.35.66-.91 1.01-1.67 1.03-1.07.14-2.05.51-2.94 1.11-1.46.56-2.78.34-4.29.32-2.39-.03-4.77 0-7.16 0h-2.86c-1.37 0-2.94.24-4.3.07a7.694 7.694 0 0 1-2.9-1.16c-1.36-.5-2.23-.28-3.22-1.39-.4-.53-.85-1.01-1.36-1.43l-1.11-.71a8.342 8.342 0 0 1-1.86-2.2c-.64-.39-.99-.96-1.08-1.71.01-.49.02-.98.04-1.47.04-.97.05-1.93.03-2.9.02-.97 0-1.93-.03-2.9-.01-.49-.03-.98-.04-1.47.11-.76.5-1.33 1.15-1.71.16-.49.29-.96.4-1.46.09-.43.32-.79.67-1.06 0 0 .68-1.79 1.15-2.65"/><g fill="none" stroke="currentColor"><path d="M9.47 25.05c.23-.42.56-.64.92-.93.38-.31 1.14-.76 1.28-1.21.19-.61-.29-1.09-.82-1.26-.23-.65-.29-1.02-.81-1.42-.38-.29-.77-.65-.97-1.09-.2-.45-.04-1.3-.03-1.79 0-1.34.01-2.67-.03-4.01-.21-.91-.12-1.78.24-2.62a4.06 4.06 0 0 1 2.62-.24c1 .03 2 0 3-.08 1.01-.05 1.48.42 1.43 1.43.23 1.69-.89 4.04.25 5.55.71.24 1 .69.87 1.36-.52.49-1.06.96-1.62 1.41-.68.38-1.04.96-1.1 1.75v3.02c.09.78.48 1.34 1.18 1.67.44.78.56 1.62.36 2.51-.08 2.14-.45 4.2 1.72 5.45.74.2 1.47.42 2.19.68.38.66.95 1.05 1.71 1.15.98-.03 1.96-.06 2.94-.08h2.86c1.91 0 3.82-.04 5.73.03 2.3.09 4.52-.44 5.48-2.9.1-.87.3-1.72.6-2.54.67-.35 1.06-.91 1.16-1.68-.03-.98-.06-1.96-.08-2.94v-8.59c0-2.29-.39-4.83.28-7.02.25.01.51.02.76.04.5.53.98 1.08 1.43 1.65.87.97 1.79.98 3.01 1.28.39.86.45 1.75.2 2.67.05.81.44 1.37 1.16 1.71.47.79.57 1.64.32 2.55-.03.5-.05 1.01-.08 1.51.1.78.5 1.33 1.19 1.67.47.79.57 1.64.32 2.55l-.08 1.51c.1.78.5 1.33 1.19 1.67.44.79.56 1.64.39 2.55v1.51c-.09.78-.48 1.34-1.18 1.67-.46.79-.57 1.64-.32 2.55.08 1.59.13 2.19-1.04 3.25-1.24 1.12-2.28 2.47-3.53 3.56-.82.58-1.69 1.06-2.62 1.43l-1.08.75c-.35.66-.91 1.01-1.67 1.03-1.07.14-2.05.51-2.94 1.11-1.46.56-2.78.34-4.29.32-2.39-.03-4.77 0-7.16 0h-2.86c-1.37 0-2.94.24-4.3.07a7.694 7.694 0 0 1-2.9-1.16c-1.36-.5-2.23-.28-3.22-1.39-.4-.53-.85-1.01-1.36-1.43l-1.11-.71a8.342 8.342 0 0 1-1.86-2.2c-.64-.39-.99-.96-1.08-1.71.01-.49.02-.98.04-1.47.04-.97.05-1.93.03-2.9.02-.97 0-1.93-.03-2.9-.01-.49-.03-.98-.04-1.47.11-.76.5-1.33 1.15-1.71.16-.49.29-.96.4-1.46.09-.43.32-.79.67-1.06 0 0 .68-1.79 1.15-2.65Z"/><path d="M9.21 17.87c-.99-.02-1.99-.05-2.98-.08-.35.13-.7.27-1.05.4-.35.72-.93 1.14-1.73 1.25-.95.19-1.87.08-2.74-.33l-.32-1.14c.06-1.01.1-2.03.11-3.05-.01-1.02-.05-2.03-.11-3.05l.32-1.14c.87-.41 1.78-.52 2.73-.33 1.3.27 1.67 1.03 2.47 1.98l.69.78c.83.43 1.7.53 2.62.29"/><path d="M2.75 10.66V7.78c-.02-1.21-.51-2.94.34-4.01.8-.38 1.28-.97 1.44-1.79-.14-.4-.28-.8-.43-1.2C3.17.24 2.26.25 1.35.83c.02.25.03.5.05.76.8.41 1.25 1.03 1.34 1.87M2.75 20.61c-.02.98 0 1.95.04 2.93.23.9.1 1.75-.38 2.54-.81.37-1.26.98-1.37 1.83-.24 1.97 2.14 1.42 2.97.34.75-.33 1.04-.84.87-1.53-.45-.11-.91-.22-1.36-.32M6.2 14.93v1.42M16.28 13.44c3.83 0 7.68-.12 11.5.03.88.24 1.72.14 2.52-.28.38-.95.95-1.77 1.71-2.46.92-.58 1.82-.59 2.7-.03.1.39.21.78.31 1.17-.06 1.01-.1 2.02-.11 3.03-.01.99 0 1.97.03 2.95.22.94.13 1.85-.28 2.71-.78.51-1.55.48-2.3-.08-.83-.6-1.19-1.8-2.03-2.38-.81-.41-1.66-.52-2.55-.33-.97.04-1.93.05-2.9.03h-7.17M13.28 27.78v2.86c-.01 1.19-.45 2.94.28 4.02l.76.67c.51.45 1 .91 1.47 1.4l.72.72c.44.51.91 1 1.4 1.48.74.19 1.48.41 2.2.67.23.25.45.51.68.76.78.45 1.62.57 2.52.36 2.89-.08 5.8-.08 8.69 0 .89.21 1.73.09 2.52-.35.21-.27.42-.53.63-.8.82-.41 1.69-.51 2.59-.28.37-.1.75-.21 1.12-.32.44-.51.89-1.02 1.35-1.52.25-.23.51-.45.76-.68.67-.42 1.01-1.03 1.04-1.83.06-.79.43-1.37 1.12-1.75.77-1.09.33-2.76.32-3.98-.03-2.86 0-5.73 0-8.59"/><path d="M10.45 29.13c.03.5.05 1.01.08 1.51-.1.78-.5 1.34-1.19 1.68-.79 1.07-.31 2.79-.31 3.99s-.46 2.92.28 4.02c.48.44.96.9 1.43 1.36.81.59 1.69 1.07 2.62 1.44l1.08.75c.34.71.91 1.07 1.71 1.08.51-.02 1.01-.05 1.52-.08.81.05 1.38.43 1.71 1.16 1.05.79 2.8.33 3.99.32 1.91-.02 3.82-.02 5.73 0 1.5.02 2.86.26 4.3-.32.48-.27.95-.53 1.43-.8.96-.38 1.94-.47 2.95-.27l1.03-.36c.38-.69.96-1.06 1.75-1.12.8-.02 1.41-.37 1.83-1.04.44-.51.91-1 1.4-1.47l.72-.72c.5-.46 1-.92 1.51-1.36 1.07-1.57-.54-3.61.6-5.14.26-.21.53-.42.79-.63.47-.8.62-1.67.43-2.6-.11-.79-.52-1.36-1.22-1.71-.47-.79-.57-1.65-.32-2.55M19.28 13.5c-.07.79-.51 1.38-1.32 1.76-.56.79-.69 1.63-.39 2.54M22.12 13.5c-.05.77-.41 1.36-1.1 1.78-.68.86-1.36 1.72-2.04 2.57M24.85 13.35l-1.23.29c-.22.77-.44 1.54-.67 2.31-.69.43-1.07 1.04-1.15 1.84M26.36 13.48c.31.9.18 1.75-.39 2.54-.82.38-1.26.97-1.32 1.76M29.23 13.49c-.08.8-.46 1.41-1.15 1.84-.23.77-.45 1.54-.67 2.31-.41.1-.82.19-1.23.29M30.53 14.93v1.42"/></g></svg>