<svg xmlns="http://www.w3.org/2000/svg" width="51.08" height="49.71" viewBox="0 0 51.1 49.7">
<path fill="#00b47c" d="M28.3 49C13.2 49 7.2 43.7 7.2 35.8c0-7.6 5.5-11.5 5.5-15 0-1.1-.5-1.2-1-1.2-.8-.1-1.1-.5-1.1-1.2v-6.1c0-1.1.6-1.8 1.5-1.8H16c1.1 0 1.7.7 1.7 1.8v6c0 .6-.3 1-1.1 1.2-.4.1-.5.3-.5.7v8.6c0 4.7 2.4 7.6 8.3 7.6h7.9c5.7 0 8.1-2.9 8.1-7.6V11.7c0-1 .5-1.6 1.3-1.6.6 0 1 .4 1.2 1.3.3 1.3.5 1.5 1 1.5.4 0 .6-.3 1-.3.3 0 .5.1.6.5 2.9 7.3 4.5 14.1 4.5 19.4C49.8 43.1 43.6 49 28.3 49z" opacity=".65"/>
<g fill="none" stroke="currentColor" stroke-width=".75" stroke-miterlimit="10">
<path d="M4.2 25.1v-5.9M4.2 25.1c0 1.4-1.5 1.3-1.5 2.7 0 .9.6 1.5 1.5 1.5s1.5-.6 1.5-1.5c0-1.5-1.5-1.3-1.5-2.7zM4.2 4.8v5.9M27.9 17.2l2.1-4.5M25.5 17.2l2.1-4.5M23.1 17.2l2.1-4.5M20.7 17.2l2.1-4.5M30.9 16v-2.2M18.4 17.2l2-4.5M7.6 16v-2.1M10.5 17.2H7.8c-.5 0-.7.3-.8.7-.1.7-.5 1.2-1.2 1.2h-3c-1 0-1.5-.5-1.5-1.5v-5.4c0-1 .6-1.5 1.5-1.5h2.9c.7 0 1.2.5 1.2 1.2.1.5.3.7.8.7h2.8M18 12.7h12.8c1.3-1.9 2.2-2.9 3.4-2.9.6 0 1.1.4 1.1 1.4v7.5c0 1.1-.5 1.4-1.1 1.4-1.2 0-2.1-1-3.4-2.9H18" class="st1"/>
<path d="M13.9 25.5c-.4 4.7-.4 6.5.4 8.6 1.4 3.2 4.7 5.4 10 5.4h8.1c7.5 0 10.9-4.1 10.9-11 0-4 .1-6.8-.3-11M4.2 4.8c0-1.4 1.5-1.3 1.5-2.7 0-.9-.6-1.5-1.5-1.5s-1.5.7-1.5 1.6c0 1.4 1.5 1.2 1.5 2.6z" class="st1"/>
<path d="M44.7 18.5c1.5 5.6 2.2 10.2 2.2 14.1 0 8.7-4.9 13.3-18.5 13.3-13.4 0-18-4.1-18-10.6 0-2.9.6-5.5 1.9-8" class="st1"/>
<path d="M28.3 49C13.2 49 7.2 43.7 7.2 35.8c0-7.6 5.5-11.5 5.5-15 0-1.1-.5-1.2-1-1.2-.8-.1-1.1-.5-1.1-1.2v-6.1c0-1.1.6-1.8 1.5-1.8H16c1.1 0 1.7.7 1.7 1.8v6c0 .6-.3 1-1.1 1.2-.4.1-.5.3-.5.7v8.6c0 4.7 2.4 7.6 8.3 7.6h7.9c5.7 0 8.1-2.9 8.1-7.6V11.7c0-1 .5-1.6 1.3-1.6.6 0 1 .4 1.2 1.3.3 1.3.5 1.5 1 1.5.4 0 .6-.3 1-.3.3 0 .5.1.6.5 2.9 7.3 4.5 14.1 4.5 19.4C49.8 43.1 43.6 49 28.3 49z" class="st1"/>
</g>
</svg>